<?xml version="1.0" standalone="no"?>
<!DOCTYPE svg PUBLIC "-//W3C//DTD SVG 20010904//EN"
 "http://www.w3.org/TR/2001/REC-SVG-20010904/DTD/svg10.dtd">
<svg version="1.0" xmlns="http://www.w3.org/2000/svg"
 width="1326.000000pt" height="1326.000000pt" viewBox="0 0 1326.000000 1326.000000"
 preserveAspectRatio="xMidYMid meet">
<metadata>
Created by potrace 1.14, written by Peter Selinger 2001-2017
</metadata>
<g transform="translate(0.000000,1326.000000) scale(0.100000,-0.100000)"
fill="#000000" stroke="none">
<path d="M984 10798 c3 -1311 8 -2419 10 -2463 14 -267 18 -346 31 -485 12
-133 20 -212 50 -475 10 -88 46 -361 50 -375 2 -8 7 -34 10 -57 6 -47 53 -283
84 -433 54 -256 165 -672 252 -945 58 -186 227 -627 311 -815 267 -599 601
-1164 992 -1680 421 -554 1035 -1156 1636 -1601 200 -149 576 -406 720 -493
25 -15 90 -56 145 -92 55 -35 107 -67 115 -71 8 -4 77 -45 155 -91 135 -81
358 -210 495 -284 168 -92 572 -288 592 -288 21 0 342 157 523 255 157 85 205
111 315 173 494 278 987 598 1420 921 85 63 157 118 160 121 3 3 39 32 80 65
249 197 394 328 670 605 249 248 349 358 551 605 84 102 241 308 309 405 864
1234 1381 2648 1550 4240 6 58 13 115 15 126 2 12 6 61 10 110 4 49 9 97 10
106 3 16 13 237 20 448 6 176 16 2125 19 3528 l3 1322 -5655 0 -5655 0 7
-2382z"/>
</g>
</svg>
